<svg xmlns="http://www.w3.org/2000/svg" xml:space="preserve" id="Home" width="77.9" height="61" x="0" y="0" style="enable-background:new 0 0 77.9 61" version="1.1"><style>.st0{fill:#225db9}.st2{stroke-linecap:round;stroke-linejoin:round}.st2,.st3{fill:none;stroke:#225db9;stroke-miterlimit:10}</style><switch><g><path d="m39.7 26.6-2.5-4.1-3.6-1.5 1-1.1v-1.5l-2.2-3.3 4.2-4 .6 2.1-.9 1.8 3.3.4.5 2.1 1.5.1 1.5-4.9 10.3-6.8-.8-5.4h2.5l2 3.2 1.7.5 1.8 2.5v2.1L64 9l3.5-1.9 4.3 2-2.1 4.7 1.9 1.6h-7.3L61.2 20l.9 2.9-1.8-.4-1.4 3.5 2.6 4.6s4.4-.9 4.4 3h2.4l1.6-1.8-.1 3.9 1.3 1.1 2.8.2 3.5 4.2.1 6.2-1.8 1.1.2 2.4h-2.3l3 4-5.1 5.7-6.6-4.6" class="st2"/><circle cx="54.9" cy="56" r="1.8" class="st3"/><circle cx="54.9" cy="56" r="4.5" class="st3"/><circle cx="23.6" cy="56" r="1.8" class="st3"/><circle cx="23.6" cy="56" r="4.5" class="st3"/><path d="M49 45.6h1.7M48.6 37.5v4.1c0 .5.4.9.9.9h4.3c1.8 0 3.2 1.4 3.2 3.2v0h5v-2c0-.2-.1-.5-.2-.7l-3.7-5.6c-.3-.4-.7-.7-1.2-.7-1.4 0-4.4 0-7.3-.1-.6.1-1 .5-1 .9z" class="st2"/><path d="m63.9 41.2-4.2-6.4c-.5-.8-1.4-1.3-2.3-1.3H46.2v22.9h4.2V56c0-2.5 2-4.5 4.5-4.5s4.5 2 4.5 4.5v.4h4.8V42.1c0-.3-.1-.6-.3-.9z" class="st2"/><path d="M14.6 29.4v-1.9c0-.5.4-.9.9-.9h29.9c.5 0 .9.4.9.9v23.1c0 .5-.4.9-.9.9H15.5c-.5 0-.9-.4-.9-.9v-4.2M46.2 48.6H23M51 53.7h-4.8M62.8 53.6h1.4v-2.8h-2.8v1.4c0 .8.7 1.4 1.4 1.4zM16.7 54.1c0 .5.4.9.9.9h1.6c.5-2 2.2-3.5 4.4-3.5h-6.9v2.6zM42.1 56.4H31.5c-.3 0-.6-.3-.6-.6v-4.3h11.7v4.3c.1.3-.2.6-.5.6z" class="st2"/><path d="M30.9 51.5h-7.3c2.1 0 3.9 1.5 4.4 3.5h2.9v-3.5zM42.7 51.5h3.5V55h-3.5zM34.8 51.5v3.1M38.7 51.5v3.1M19.1 34h-8.6M7.5 34H4.7M26.7 44H6.8M.5 39h17.1M20.5 39h2.8M46.2 29.6h-7.5" class="st2"/><circle cx="23" cy="13.6" r="3" class="st2"/><path d="M23 23.1s-6-5.6-6-9.5c0-3.3 2.7-6 6-6h0c3.3 0 6 2.7 6 6 0 3.9-6 9.5-6 9.5h0zM39.5 37.4c0-3.4-2.7-6.1-6.1-6.1-3.4 0-6.1 2.7-6.1 6.1 0 3.4 2.7 6.1 6.1 6.1 3.3 0 6.1-2.7 6.1-6.1" class="st2"/><path d="M30.3 35v1.2c0 .2.1.2.2.2h.3l.1-.1c.1-.1.1-.1.1-.2.1-.1.1-.2.2-.2.1-.1.2-.2.2-.3l.3-.3.3-.3.3-.3c.1-.1.2-.2.2-.3.1-.1.1-.2.2-.2.1-.1.1-.2.2-.2v-.2c0-.1-.1-.1-.1-.1H30c-.1 0-.2 0-.1.1 0 .1.1.2.2.2 0 .1.1.2.1.3.1.2.1.4.1.6v.1zM37 41.1c0-.1-.1-.1-.1-.2l-.2-.2c-.1-.1-.2-.2-.2-.3-.5-.7-1-1.3-1.6-2-.3-.4-.5-.7-.8-1 .3-.3.6-.6.8-1 .5-.7 1-1.3 1.6-2 .1-.1.2-.2.2-.3l.2-.2c.1-.1.1-.1.1-.2s-.1-.2-.2-.2h-2c-.1 0-.2.1-.3.3L33 35.7l-.6.7-.4.6c-.4.4-.7.8-1.1 1.2l-.5.5-.2.2v.2c0 .1.1.1.2.1h.4c1 0 2-.1 2.7.7.2.3.5.5.7.8.1.1.1.2.2.2l.3.3h2c.2.1.3 0 .3-.1z" class="st0"/></g></switch></svg>